<svg xmlns="http://www.w3.org/2000/svg" width="544.2" height="544.2" viewBox="0 0 544.2 544.2"><path d="M272.1 0C2.1 0 0 121.8 0 272.1s2.1 272.1 272.1 272.1 272.1-121.8 272.1-272.1S542.1 0 272.1 0z" fill="#6565c9"/><path d="M398.4 179v-27c0-11.6-9.4-21.1-21.1-21.1H166.9c-11.7 0-21.1 9.4-21.1 21.1v27h252.6zM422.5 257.2v-27.1c0-11.6-9.4-21.1-21-21.1H142.8c-11.6 0-21 9.4-21 21.1v27.1h300.7zM446.5 308.3c0-11.6-9.4-21-21-21H118.7c-11.6 0-21 9.4-21 21v71.9c0 11.6 9.4 21 21 21h306.7c11.6 0 21-9.4 21-21v-71.9h.1z" fill="#fff"/></svg>