<?xml version="1.0" encoding="utf-8"?>
<!-- Generator: Adobe Illustrator 18.1.1, SVG Export Plug-In . SVG Version: 6.00 Build 0)  -->
<!DOCTYPE svg PUBLIC "-//W3C//DTD SVG 1.1//EN" "http://www.w3.org/Graphics/SVG/1.1/DTD/svg11.dtd">
<svg version="1.1" id="Layer_1" xmlns:sketch="http://www.bohemiancoding.com/sketch/ns"
	 xmlns="http://www.w3.org/2000/svg" xmlns:xlink="http://www.w3.org/1999/xlink" x="0px" y="0px" viewBox="-158.9 169.5 522 522"
	 enable-background="new -158.9 169.5 522 522" xml:space="preserve">
<title>Untitled</title>
<desc>Created with Sketch.</desc>
<linearGradient id="Oval-1_1_" gradientUnits="userSpaceOnUse" x1="-316.6334" y1="595.5032" x2="-318.0549" y2="593.567" gradientTransform="matrix(521 0 0 -521 165361 310288.0625)">
	<stop  offset="0" style="stop-color:#3A3897"/>
	<stop  offset="1" style="stop-color:#A3A1FF"/>
</linearGradient>
<circle id="Oval-1" sketch:type="MSShapeGroup" fill="url(#Oval-1_1_)" stroke="#979797" cx="101.6" cy="430.5" r="260.5">
</circle>
<path fill="#F0F7F5" d="M217.3,304.2H-13c-9.5,0-17.2,7.7-17.2,17.2v218.1c0,9.5,7.7,17.2,17.2,17.2h230.3c9.5,0,17.2-7.7,17.2-17.2
	V321.4C234.5,311.9,226.8,304.2,217.3,304.2z M215.2,529.6c0,0.1,0,0.3,0,0.4c-0.2,3.9-3.3,7.1-7.2,7.4c-0.2,0-0.4,0-0.6,0
	c-0.2,0-0.4,0-0.6,0H-2.5c-0.2,0-0.4,0-0.6,0c-0.2,0-0.4,0-0.6,0c-3.9-0.3-7-3.5-7.2-7.4c0-0.1,0-0.3,0-0.4c0-0.1,0-0.3,0-0.4v-195
	c0-0.1,0-0.3,0-0.4c0-0.1,0-0.3,0-0.4c0.2-4.1,3.6-7.4,7.8-7.4h210.4c4.2,0,7.6,3.3,7.8,7.4c0,0.1,0,0.3,0,0.4c0,0.1,0,0.3,0,0.4
	v195C215.2,529.3,215.2,529.5,215.2,529.6z"/>
<path fill="#F0F7F5" d="M188,342.6H16.3c-5.8,0-10.5,4.7-10.5,10.5v16.2c0,5.8,4.7,10.5,10.5,10.5H188c5.8,0,10.5-4.7,10.5-10.5
	v-16.2C198.4,347.3,193.8,342.6,188,342.6z"/>
<path fill="#F0F7F5" d="M188,477.9H16.3c-5.8,0-10.5,4.7-10.5,10.5v21.9c0,5.8,4.7,10.5,10.5,10.5H188c5.8,0,10.5-4.7,10.5-10.5
	v-21.9C198.4,482.6,193.8,477.9,188,477.9z"/>
<path fill="#F0F7F5" d="M188,396.4H16.3c-5.8,0-10.5,4.7-10.5,10.5v43.9c0,5.8,4.7,10.5,10.5,10.5H188c5.8,0,10.5-4.7,10.5-10.5
	v-43.9C198.4,401.1,193.8,396.4,188,396.4z"/>
</svg>
