<svg xmlns="http://www.w3.org/2000/svg" viewBox="-158.9 169.5 522 522"><linearGradient id="a" x1="-316.633" x2="-318.055" y1="595.503" y2="593.567" gradientUnits="userSpaceOnUse" gradientTransform="matrix(521 0 0 -521 165361 310288.063)"><stop offset="0" stop-color="#3A3897"/><stop offset="1" stop-color="#A3A1FF"/></linearGradient><circle cx="101.6" cy="430.5" r="260.5" fill="url(#a)" stroke="#979797"/><path fill="#F0F7F5" d="M217.3 304.2H-13c-9.5 0-17.2 7.7-17.2 17.2v218.1c0 9.5 7.7 17.2 17.2 17.2h230.3c9.5 0 17.2-7.7 17.2-17.2V321.4c0-9.5-7.7-17.2-17.2-17.2zm-2.1 225.4v.4c-.2 3.9-3.3 7.1-7.2 7.4H-3.7c-3.9-.3-7-3.5-7.2-7.4V333.4c.2-4.1 3.6-7.4 7.8-7.4h210.4c4.2 0 7.6 3.3 7.8 7.4v195.8c.1.1.1.3.1.4z"/><path fill="#F0F7F5" d="M188 342.6H16.3c-5.8 0-10.5 4.7-10.5 10.5v16.2c0 5.8 4.7 10.5 10.5 10.5H188c5.8 0 10.5-4.7 10.5-10.5v-16.2c-.1-5.8-4.7-10.5-10.5-10.5zm0 135.3H16.3c-5.8 0-10.5 4.7-10.5 10.5v21.9c0 5.8 4.7 10.5 10.5 10.5H188c5.8 0 10.5-4.7 10.5-10.5v-21.9c-.1-5.8-4.7-10.5-10.5-10.5zm0-81.5H16.3c-5.8 0-10.5 4.7-10.5 10.5v43.9c0 5.8 4.7 10.5 10.5 10.5H188c5.8 0 10.5-4.7 10.5-10.5v-43.9c-.1-5.8-4.7-10.5-10.5-10.5z"/></svg>