<?xml version="1.0" encoding="utf-8"?>
<!-- Generator: Adobe Illustrator 28.0.0, SVG Export Plug-In . SVG Version: 6.00 Build 0)  -->
<svg version="1.1" id="Layer_1" xmlns="http://www.w3.org/2000/svg" xmlns:xlink="http://www.w3.org/1999/xlink" x="0px" y="0px"
	 viewBox="0 0 348.8 270.3" style="enable-background:new 0 0 348.8 270.3;" xml:space="preserve">
<path d="M300.7,48.1v-27c0-11.6-9.4-21.1-21.1-21.1H69.2C57.5,0,48.1,9.4,48.1,21.1v27H300.7z M324.8,126.3
	V99.2c0-11.6-9.4-21.1-21-21.1H45.1c-11.6,0-21,9.4-21,21.1v27.1H324.8z M348.8,177.4c0-11.6-9.4-21-21-21H21c-11.6,0-21,9.4-21,21
	v71.9c0,11.6,9.4,21,21,21h306.7c11.6,0,21-9.4,21-21L348.8,177.4L348.8,177.4L348.8,177.4z"/>
</svg>
